<svg width="129" height="221" viewBox="0 0 129 221" fill="none" xmlns="http://www.w3.org/2000/svg">
<path d="M87.3 135.3L88.2999 135.316L88.3165 134.3H87.3V135.3ZM81.9 135.3V134.3H80.9202L80.9002 135.28L81.9 135.3ZM7.5 24.9L6.74979 24.2388L6.54623 24.4698L6.50781 24.7752L7.5 24.9ZM1.2 75L0.207815 74.8752L0.0663771 76H1.2V75ZM4.2 75V76H5.02962L5.1828 75.1846L4.2 75ZM64.2 162.7C70.8619 162.7 76.8456 160.604 81.1976 156.054C85.5445 151.509 88.147 144.639 88.2999 135.316L86.3001 135.284C86.153 144.261 83.6555 150.591 79.7524 154.671C75.8544 158.746 70.4381 160.7 64.2 160.7V162.7ZM87.3 134.3H81.9V136.3H87.3V134.3ZM80.9002 135.28C80.7535 142.469 78.8494 147.398 76.1895 150.513C73.5386 153.618 70.0717 155 66.6 155V157C70.6283 157 74.6614 155.382 77.7105 151.812C80.7506 148.252 82.7465 142.831 82.8998 135.32L80.9002 135.28ZM66.6 155C59.8058 155 52.6 148.715 52.6 136.2H50.6C50.6 149.485 58.3942 157 66.6 157V155ZM52.6 136.2C52.6 128.552 57.0407 122.546 64.0357 116.971C71.0531 111.379 80.3949 106.405 89.9127 100.721C108.801 89.4405 128.2 75.4561 128.2 48.9H126.2C126.2 74.2439 107.799 87.7095 88.8873 99.004C79.5052 104.607 69.9469 109.703 62.7893 115.407C55.6093 121.129 50.6 127.648 50.6 136.2H52.6ZM128.2 48.9C128.2 33.4123 121.282 21.3437 110.051 13.1786C98.8489 5.03548 83.4007 0.799986 66.3 0.799986V2.79999C83.0993 2.79999 98.1011 6.96449 108.874 14.7963C119.618 22.6063 126.2 34.0877 126.2 48.9H128.2ZM66.3 0.799986C45.4523 0.799986 22.6156 6.2372 6.74979 24.2388L8.25021 25.5612C23.5844 8.16278 45.7477 2.79999 66.3 2.79999V0.799986ZM6.50781 24.7752L0.207815 74.8752L2.19219 75.1248L8.49219 25.0248L6.50781 24.7752ZM1.2 76H4.2V74H1.2V76ZM5.1828 75.1846C14.4175 26.032 43.1983 8.19999 65.1 8.19999V6.19999C42.0017 6.19999 12.5825 24.968 3.2172 74.8153L5.1828 75.1846ZM65.1 8.19999C88.6095 8.19999 107.3 24.6121 107.3 48.9H109.3C109.3 23.3879 89.5905 6.19999 65.1 6.19999V8.19999ZM107.3 48.9C107.3 61.3895 103.107 70.2289 96.8234 77.1893C90.5019 84.1916 82.0477 89.3155 73.4478 94.3103C64.9032 99.2728 56.1852 104.122 49.6346 110.539C43.0324 117.006 38.6 125.091 38.6 136.5H40.6C40.6 125.709 44.7551 118.119 51.0342 111.967C57.3648 105.766 65.8218 101.052 74.4522 96.0397C83.0273 91.0594 91.7481 85.7958 98.3079 78.5295C104.906 71.2211 109.3 61.9104 109.3 48.9H107.3ZM38.6 136.5C38.6 153.33 51.7285 162.7 64.2 162.7V160.7C52.6715 160.7 40.6 152.07 40.6 136.5H38.6ZM63.3 220.3C70.4364 220.3 76.6 214.768 76.6 206.7H74.6C74.6 213.632 69.3636 218.3 63.3 218.3V220.3ZM76.6 206.7C76.6 198.6 70.4033 193.4 63.3 193.4V195.4C69.3967 195.4 74.6 199.8 74.6 206.7H76.6ZM63.3 193.4C56.4958 193.4 50 198.901 50 206.7H52C52 200.099 57.5042 195.4 63.3 195.4V193.4ZM50 206.7C50 214.783 56.4794 220.3 63.3 220.3V218.3C57.5206 218.3 52 213.617 52 206.7H50Z" fill="black"/>
</svg>
