<svg width="154" height="206" viewBox="0 0 154 206" fill="none" xmlns="http://www.w3.org/2000/svg">
<path d="M132.3 14.8L131.728 15.6204L131.735 15.6253L131.742 15.6301L132.3 14.8ZM136.8 94L137.462 94.7498L137.463 94.749L136.8 94ZM95.7 110.2L95.5959 109.205L94.7648 109.292L94.7028 110.126L95.7 110.2ZM93.6 138.4V139.4H94.5283L94.5972 138.474L93.6 138.4ZM57 138.4L56.0008 138.44L56.039 139.4H57V138.4ZM55.2 93.1L55.0953 92.1055L54.1636 92.2036L54.2008 93.1397L55.2 93.1ZM96 82.3L96.5355 83.1445L96.5428 83.1399L96.55 83.1352L96 82.3ZM100.2 42.1L99.5541 42.8634L99.5698 42.8767L99.5861 42.8893L100.2 42.1ZM51.3 44.5L51.9715 45.241L51.9727 45.2399L51.3 44.5ZM40.5 69.4L40.1164 70.3235L41.395 70.8546L41.4973 69.4739L40.5 69.4ZM1.5 53.2L0.512947 53.0396L0.386109 53.8201L1.11639 54.1235L1.5 53.2ZM24.9 15.1L24.3199 14.2854L24.3141 14.2896L24.9 15.1ZM94.2 198.4L93.5257 197.662L93.5257 197.662L94.2 198.4ZM56.4 198.4L55.7095 199.123L55.7175 199.131L55.7257 199.138L56.4 198.4ZM56.4 164.2L55.7257 163.462L55.7175 163.469L55.7095 163.477L56.4 164.2ZM79.5 1.99999C101.369 1.99999 118.747 6.5732 131.728 15.6204L132.872 13.9796C119.453 4.62679 101.631 -5.00679e-06 79.5 -5.00679e-06V1.99999ZM131.742 15.6301C144.845 24.4304 151.4 37.2072 151.4 54.1H153.4C153.4 36.5928 146.555 23.1696 132.858 13.9699L131.742 15.6301ZM151.4 54.1C151.4 71.2916 146.271 84.287 136.137 93.251L137.463 94.749C148.129 85.313 153.4 71.7084 153.4 54.1H151.4ZM136.138 93.2502C126.132 102.079 112.645 107.421 95.5959 109.205L95.8041 111.195C113.155 109.379 127.068 103.921 137.462 94.7498L136.138 93.2502ZM94.7028 110.126L92.6028 138.326L94.5972 138.474L96.6972 110.274L94.7028 110.126ZM93.6 137.4H57V139.4H93.6V137.4ZM57.9992 138.36L56.1992 93.0603L54.2008 93.1397L56.0008 138.44L57.9992 138.36ZM55.3047 94.0945C74.3373 92.0911 88.1317 88.4738 96.5355 83.1445L95.4645 81.4555C87.4684 86.5262 74.0627 90.1089 55.0953 92.1055L55.3047 94.0945ZM96.55 83.1352C105.016 77.56 109.3 69.8539 109.3 60.1H107.3C107.3 69.1461 103.384 76.2399 95.45 81.4648L96.55 83.1352ZM109.3 60.1C109.3 52.0405 106.494 45.7283 100.814 41.3106L99.5861 42.8893C104.706 46.8717 107.3 52.5595 107.3 60.1H109.3ZM100.846 41.3366C95.3914 36.7213 87.3171 34.5 76.8 34.5V36.5C87.0829 36.5 94.6086 38.6787 99.5541 42.8634L100.846 41.3366ZM76.8 34.5C66.1952 34.5 57.4415 37.5653 50.6273 43.76L51.9727 45.2399C58.3585 39.4347 66.6048 36.5 76.8 36.5V34.5ZM50.6285 43.759C43.9932 49.7723 40.3167 58.3382 39.5027 69.3261L41.4973 69.4739C42.2834 58.8618 45.8068 50.8277 51.9715 45.241L50.6285 43.759ZM40.8836 68.4765L1.88361 52.2765L1.11639 54.1235L40.1164 70.3235L40.8836 68.4765ZM2.48705 53.3604C5.04511 37.6185 12.7029 25.1535 25.4859 15.9103L24.3141 14.2896C11.0971 23.8465 3.15489 36.7815 0.512947 53.0396L2.48705 53.3604ZM25.4801 15.9146C38.4518 6.6771 56.4216 1.99999 79.5 1.99999V-5.00679e-06C56.1784 -5.00679e-06 37.7482 4.72289 24.3199 14.2854L25.4801 15.9146ZM75.3 158.9C83.1237 158.9 89.1578 160.95 93.5257 164.938L94.8743 163.462C90.0423 159.05 83.4763 156.9 75.3 156.9V158.9ZM93.5257 164.938C97.8852 168.919 100.1 174.333 100.1 181.3H102.1C102.1 173.867 99.7148 167.881 94.8743 163.462L93.5257 164.938ZM100.1 181.3C100.1 188.267 97.8852 193.681 93.5257 197.662L94.8743 199.138C99.7148 194.719 102.1 188.733 102.1 181.3H100.1ZM93.5257 197.662C89.1578 201.65 83.1237 203.7 75.3 203.7V205.7C83.4763 205.7 90.0423 203.55 94.8743 199.138L93.5257 197.662ZM75.3 203.7C67.4763 203.7 61.4423 201.65 57.0743 197.662L55.7257 199.138C60.5578 203.55 67.1237 205.7 75.3 205.7V203.7ZM57.0905 197.677C52.9243 193.7 50.8 188.281 50.8 181.3H48.8C48.8 188.719 51.0757 194.7 55.7095 199.123L57.0905 197.677ZM50.8 181.3C50.8 174.319 52.9243 168.9 57.0905 164.923L55.7095 163.477C51.0757 167.9 48.8 173.881 48.8 181.3H50.8ZM57.0743 164.938C61.4423 160.95 67.4763 158.9 75.3 158.9V156.9C67.1237 156.9 60.5578 159.05 55.7257 163.462L57.0743 164.938Z" fill="black"/>
</svg>
