<svg width="166" height="152" viewBox="0 0 166 152" fill="none" xmlns="http://www.w3.org/2000/svg">
<path d="M116.5 151L115.65 151.527L115.944 152H116.5V151ZM82.6 96.4L83.4496 95.8725L82.6074 94.5162L81.7546 95.8658L82.6 96.4ZM48.1 151V152H48.651L48.9454 151.534L48.1 151ZM2.2 151L1.39126 150.412L0.23623 152H2.2V151ZM57.4 75.1L58.2087 75.6882L58.631 75.1076L58.216 74.5219L57.4 75.1ZM4.9 1V0H2.96595L4.08404 1.57811L4.9 1ZM52.3 1L53.1532 0.478353L52.8607 0H52.3V1ZM84.4 53.5L83.5468 54.0216L84.4 55.417L85.2532 54.0216L84.4 53.5ZM116.5 1V0H115.939L115.647 0.478353L116.5 1ZM162.7 1L163.513 1.58248L164.647 0H162.7V1ZM109.6 75.1L108.787 74.5175L108.371 75.0979L108.785 75.6797L109.6 75.1ZM163.6 151V152H165.539L164.415 150.42L163.6 151ZM117.35 150.473L83.4496 95.8725L81.7504 96.9275L115.65 151.527L117.35 150.473ZM81.7546 95.8658L47.2546 150.466L48.9454 151.534L83.4454 96.9342L81.7546 95.8658ZM48.1 150H2.2V152H48.1V150ZM3.00874 151.588L58.2087 75.6882L56.5913 74.5118L1.39126 150.412L3.00874 151.588ZM58.216 74.5219L5.71596 0.421891L4.08404 1.57811L56.584 75.6781L58.216 74.5219ZM4.9 2H52.3V0H4.9V2ZM51.4468 1.52165L83.5468 54.0216L85.2532 52.9783L53.1532 0.478353L51.4468 1.52165ZM85.2532 54.0216L117.353 1.52165L115.647 0.478353L83.5468 52.9783L85.2532 54.0216ZM116.5 2H162.7V0H116.5V2ZM161.887 0.417517L108.787 74.5175L110.413 75.6825L163.513 1.58248L161.887 0.417517ZM108.785 75.6797L162.785 151.58L164.415 150.42L110.415 74.5203L108.785 75.6797ZM163.6 150H116.5V152H163.6V150Z" fill="black"/>
</svg>
